G04 #@! TF.GenerationSoftware,KiCad,Pcbnew,(5.1.5)-3*
G04 #@! TF.CreationDate,2020-05-31T13:11:01+03:00*
G04 #@! TF.ProjectId,voltlog scope shunt,766f6c74-6c6f-4672-9073-636f70652073,rev?*
G04 #@! TF.SameCoordinates,Original*
G04 #@! TF.FileFunction,Soldermask,Bot*
G04 #@! TF.FilePolarity,Negative*
%FSLAX46Y46*%
G04 Gerber Fmt 4.6, Leading zero omitted, Abs format (unit mm)*
G04 Created by KiCad (PCBNEW (5.1.5)-3) date 2020-05-31 13:11:01*
%MOMM*%
%LPD*%
G04 APERTURE LIST*
%ADD10C,0.100000*%
G04 APERTURE END LIST*
D10*
G36*
X114775256Y-92991298D02*
G01*
X114881579Y-93012447D01*
X115182042Y-93136903D01*
X115452451Y-93317585D01*
X115682415Y-93547549D01*
X115863097Y-93817958D01*
X115987553Y-94118421D01*
X116051000Y-94437391D01*
X116051000Y-94762609D01*
X115987553Y-95081579D01*
X115863097Y-95382042D01*
X115682415Y-95652451D01*
X115452451Y-95882415D01*
X115182042Y-96063097D01*
X114881579Y-96187553D01*
X114775256Y-96208702D01*
X114562611Y-96251000D01*
X114237389Y-96251000D01*
X114024744Y-96208702D01*
X113918421Y-96187553D01*
X113617958Y-96063097D01*
X113347549Y-95882415D01*
X113117585Y-95652451D01*
X112936903Y-95382042D01*
X112812447Y-95081579D01*
X112749000Y-94762609D01*
X112749000Y-94437391D01*
X112812447Y-94118421D01*
X112936903Y-93817958D01*
X113117585Y-93547549D01*
X113347549Y-93317585D01*
X113617958Y-93136903D01*
X113918421Y-93012447D01*
X114024744Y-92991298D01*
X114237389Y-92949000D01*
X114562611Y-92949000D01*
X114775256Y-92991298D01*
G37*
G36*
X152306564Y-87489389D02*
G01*
X152497833Y-87568615D01*
X152497835Y-87568616D01*
X152669973Y-87683635D01*
X152816365Y-87830027D01*
X152931385Y-88002167D01*
X153010611Y-88193436D01*
X153051000Y-88396484D01*
X153051000Y-88603516D01*
X153010611Y-88806564D01*
X152931385Y-88997833D01*
X152931384Y-88997835D01*
X152816365Y-89169973D01*
X152669973Y-89316365D01*
X152497835Y-89431384D01*
X152497834Y-89431385D01*
X152497833Y-89431385D01*
X152306564Y-89510611D01*
X152103516Y-89551000D01*
X151896484Y-89551000D01*
X151693436Y-89510611D01*
X151502167Y-89431385D01*
X151502166Y-89431385D01*
X151502165Y-89431384D01*
X151330027Y-89316365D01*
X151183635Y-89169973D01*
X151068616Y-88997835D01*
X151068615Y-88997833D01*
X150989389Y-88806564D01*
X150949000Y-88603516D01*
X150949000Y-88396484D01*
X150989389Y-88193436D01*
X151068615Y-88002167D01*
X151183635Y-87830027D01*
X151330027Y-87683635D01*
X151502165Y-87568616D01*
X151502167Y-87568615D01*
X151693436Y-87489389D01*
X151896484Y-87449000D01*
X152103516Y-87449000D01*
X152306564Y-87489389D01*
G37*
G36*
X117306564Y-87489389D02*
G01*
X117497833Y-87568615D01*
X117497835Y-87568616D01*
X117669973Y-87683635D01*
X117816365Y-87830027D01*
X117931385Y-88002167D01*
X118010611Y-88193436D01*
X118051000Y-88396484D01*
X118051000Y-88603516D01*
X118010611Y-88806564D01*
X117931385Y-88997833D01*
X117931384Y-88997835D01*
X117816365Y-89169973D01*
X117669973Y-89316365D01*
X117497835Y-89431384D01*
X117497834Y-89431385D01*
X117497833Y-89431385D01*
X117306564Y-89510611D01*
X117103516Y-89551000D01*
X116896484Y-89551000D01*
X116693436Y-89510611D01*
X116502167Y-89431385D01*
X116502166Y-89431385D01*
X116502165Y-89431384D01*
X116330027Y-89316365D01*
X116183635Y-89169973D01*
X116068616Y-88997835D01*
X116068615Y-88997833D01*
X115989389Y-88806564D01*
X115949000Y-88603516D01*
X115949000Y-88396484D01*
X115989389Y-88193436D01*
X116068615Y-88002167D01*
X116183635Y-87830027D01*
X116330027Y-87683635D01*
X116502165Y-87568616D01*
X116502167Y-87568615D01*
X116693436Y-87489389D01*
X116896484Y-87449000D01*
X117103516Y-87449000D01*
X117306564Y-87489389D01*
G37*
G36*
X154875256Y-80891298D02*
G01*
X154981579Y-80912447D01*
X155282042Y-81036903D01*
X155552451Y-81217585D01*
X155782415Y-81447549D01*
X155963097Y-81717958D01*
X156075528Y-81989389D01*
X156087553Y-82018422D01*
X156151000Y-82337389D01*
X156151000Y-82662611D01*
X156144868Y-82693436D01*
X156087553Y-82981579D01*
X155963097Y-83282042D01*
X155782415Y-83552451D01*
X155552451Y-83782415D01*
X155282042Y-83963097D01*
X154981579Y-84087553D01*
X154875256Y-84108702D01*
X154662611Y-84151000D01*
X154337389Y-84151000D01*
X154124744Y-84108702D01*
X154018421Y-84087553D01*
X153717958Y-83963097D01*
X153447549Y-83782415D01*
X153217585Y-83552451D01*
X153036903Y-83282042D01*
X152912447Y-82981579D01*
X152855132Y-82693436D01*
X152849000Y-82662611D01*
X152849000Y-82337389D01*
X152912447Y-82018422D01*
X152924473Y-81989389D01*
X153036903Y-81717958D01*
X153217585Y-81447549D01*
X153447549Y-81217585D01*
X153717958Y-81036903D01*
X154018421Y-80912447D01*
X154124744Y-80891298D01*
X154337389Y-80849000D01*
X154662611Y-80849000D01*
X154875256Y-80891298D01*
G37*
G36*
X137306564Y-81989389D02*
G01*
X137497833Y-82068615D01*
X137497835Y-82068616D01*
X137669973Y-82183635D01*
X137816365Y-82330027D01*
X137931385Y-82502167D01*
X138010611Y-82693436D01*
X138051000Y-82896484D01*
X138051000Y-83103516D01*
X138010611Y-83306564D01*
X137931385Y-83497833D01*
X137931384Y-83497835D01*
X137816365Y-83669973D01*
X137669973Y-83816365D01*
X137497835Y-83931384D01*
X137497834Y-83931385D01*
X137497833Y-83931385D01*
X137306564Y-84010611D01*
X137103516Y-84051000D01*
X136896484Y-84051000D01*
X136693436Y-84010611D01*
X136502167Y-83931385D01*
X136502166Y-83931385D01*
X136502165Y-83931384D01*
X136330027Y-83816365D01*
X136183635Y-83669973D01*
X136068616Y-83497835D01*
X136068615Y-83497833D01*
X135989389Y-83306564D01*
X135949000Y-83103516D01*
X135949000Y-82896484D01*
X135989389Y-82693436D01*
X136068615Y-82502167D01*
X136183635Y-82330027D01*
X136330027Y-82183635D01*
X136502165Y-82068616D01*
X136502167Y-82068615D01*
X136693436Y-81989389D01*
X136896484Y-81949000D01*
X137103516Y-81949000D01*
X137306564Y-81989389D01*
G37*
G36*
X132306564Y-81989389D02*
G01*
X132497833Y-82068615D01*
X132497835Y-82068616D01*
X132669973Y-82183635D01*
X132816365Y-82330027D01*
X132931385Y-82502167D01*
X133010611Y-82693436D01*
X133051000Y-82896484D01*
X133051000Y-83103516D01*
X133010611Y-83306564D01*
X132931385Y-83497833D01*
X132931384Y-83497835D01*
X132816365Y-83669973D01*
X132669973Y-83816365D01*
X132497835Y-83931384D01*
X132497834Y-83931385D01*
X132497833Y-83931385D01*
X132306564Y-84010611D01*
X132103516Y-84051000D01*
X131896484Y-84051000D01*
X131693436Y-84010611D01*
X131502167Y-83931385D01*
X131502166Y-83931385D01*
X131502165Y-83931384D01*
X131330027Y-83816365D01*
X131183635Y-83669973D01*
X131068616Y-83497835D01*
X131068615Y-83497833D01*
X130989389Y-83306564D01*
X130949000Y-83103516D01*
X130949000Y-82896484D01*
X130989389Y-82693436D01*
X131068615Y-82502167D01*
X131183635Y-82330027D01*
X131330027Y-82183635D01*
X131502165Y-82068616D01*
X131502167Y-82068615D01*
X131693436Y-81989389D01*
X131896484Y-81949000D01*
X132103516Y-81949000D01*
X132306564Y-81989389D01*
G37*
M02*
