G04 #@! TF.GenerationSoftware,KiCad,Pcbnew,(5.1.5)-3*
G04 #@! TF.CreationDate,2020-05-31T13:11:01+03:00*
G04 #@! TF.ProjectId,voltlog scope shunt,766f6c74-6c6f-4672-9073-636f70652073,rev?*
G04 #@! TF.SameCoordinates,Original*
G04 #@! TF.FileFunction,Soldermask,Top*
G04 #@! TF.FilePolarity,Negative*
%FSLAX46Y46*%
G04 Gerber Fmt 4.6, Leading zero omitted, Abs format (unit mm)*
G04 Created by KiCad (PCBNEW (5.1.5)-3) date 2020-05-31 13:11:01*
%MOMM*%
%LPD*%
G04 APERTURE LIST*
%ADD10C,0.100000*%
G04 APERTURE END LIST*
D10*
G36*
X114775256Y-92991298D02*
G01*
X114881579Y-93012447D01*
X115182042Y-93136903D01*
X115452451Y-93317585D01*
X115682415Y-93547549D01*
X115863097Y-93817958D01*
X115987553Y-94118421D01*
X116051000Y-94437391D01*
X116051000Y-94762609D01*
X115987553Y-95081579D01*
X115863097Y-95382042D01*
X115682415Y-95652451D01*
X115452451Y-95882415D01*
X115182042Y-96063097D01*
X114881579Y-96187553D01*
X114775256Y-96208702D01*
X114562611Y-96251000D01*
X114237389Y-96251000D01*
X114024744Y-96208702D01*
X113918421Y-96187553D01*
X113617958Y-96063097D01*
X113347549Y-95882415D01*
X113117585Y-95652451D01*
X112936903Y-95382042D01*
X112812447Y-95081579D01*
X112749000Y-94762609D01*
X112749000Y-94437391D01*
X112812447Y-94118421D01*
X112936903Y-93817958D01*
X113117585Y-93547549D01*
X113347549Y-93317585D01*
X113617958Y-93136903D01*
X113918421Y-93012447D01*
X114024744Y-92991298D01*
X114237389Y-92949000D01*
X114562611Y-92949000D01*
X114775256Y-92991298D01*
G37*
G36*
X148768604Y-89228347D02*
G01*
X148805144Y-89239432D01*
X148838821Y-89257433D01*
X148868341Y-89281659D01*
X148892567Y-89311179D01*
X148910568Y-89344856D01*
X148921653Y-89381396D01*
X148926000Y-89425538D01*
X148926000Y-90374462D01*
X148921653Y-90418604D01*
X148910568Y-90455144D01*
X148892567Y-90488821D01*
X148868341Y-90518341D01*
X148838821Y-90542567D01*
X148805144Y-90560568D01*
X148768604Y-90571653D01*
X148724462Y-90576000D01*
X147275538Y-90576000D01*
X147231396Y-90571653D01*
X147194856Y-90560568D01*
X147161179Y-90542567D01*
X147131659Y-90518341D01*
X147107433Y-90488821D01*
X147089432Y-90455144D01*
X147078347Y-90418604D01*
X147074000Y-90374462D01*
X147074000Y-89425538D01*
X147078347Y-89381396D01*
X147089432Y-89344856D01*
X147107433Y-89311179D01*
X147131659Y-89281659D01*
X147161179Y-89257433D01*
X147194856Y-89239432D01*
X147231396Y-89228347D01*
X147275538Y-89224000D01*
X148724462Y-89224000D01*
X148768604Y-89228347D01*
G37*
G36*
X145768604Y-89228347D02*
G01*
X145805144Y-89239432D01*
X145838821Y-89257433D01*
X145868341Y-89281659D01*
X145892567Y-89311179D01*
X145910568Y-89344856D01*
X145921653Y-89381396D01*
X145926000Y-89425538D01*
X145926000Y-90374462D01*
X145921653Y-90418604D01*
X145910568Y-90455144D01*
X145892567Y-90488821D01*
X145868341Y-90518341D01*
X145838821Y-90542567D01*
X145805144Y-90560568D01*
X145768604Y-90571653D01*
X145724462Y-90576000D01*
X144275538Y-90576000D01*
X144231396Y-90571653D01*
X144194856Y-90560568D01*
X144161179Y-90542567D01*
X144131659Y-90518341D01*
X144107433Y-90488821D01*
X144089432Y-90455144D01*
X144078347Y-90418604D01*
X144074000Y-90374462D01*
X144074000Y-89425538D01*
X144078347Y-89381396D01*
X144089432Y-89344856D01*
X144107433Y-89311179D01*
X144131659Y-89281659D01*
X144161179Y-89257433D01*
X144194856Y-89239432D01*
X144231396Y-89228347D01*
X144275538Y-89224000D01*
X145724462Y-89224000D01*
X145768604Y-89228347D01*
G37*
G36*
X142768604Y-89228347D02*
G01*
X142805144Y-89239432D01*
X142838821Y-89257433D01*
X142868341Y-89281659D01*
X142892567Y-89311179D01*
X142910568Y-89344856D01*
X142921653Y-89381396D01*
X142926000Y-89425538D01*
X142926000Y-90374462D01*
X142921653Y-90418604D01*
X142910568Y-90455144D01*
X142892567Y-90488821D01*
X142868341Y-90518341D01*
X142838821Y-90542567D01*
X142805144Y-90560568D01*
X142768604Y-90571653D01*
X142724462Y-90576000D01*
X141275538Y-90576000D01*
X141231396Y-90571653D01*
X141194856Y-90560568D01*
X141161179Y-90542567D01*
X141131659Y-90518341D01*
X141107433Y-90488821D01*
X141089432Y-90455144D01*
X141078347Y-90418604D01*
X141074000Y-90374462D01*
X141074000Y-89425538D01*
X141078347Y-89381396D01*
X141089432Y-89344856D01*
X141107433Y-89311179D01*
X141131659Y-89281659D01*
X141161179Y-89257433D01*
X141194856Y-89239432D01*
X141231396Y-89228347D01*
X141275538Y-89224000D01*
X142724462Y-89224000D01*
X142768604Y-89228347D01*
G37*
G36*
X139768604Y-89228347D02*
G01*
X139805144Y-89239432D01*
X139838821Y-89257433D01*
X139868341Y-89281659D01*
X139892567Y-89311179D01*
X139910568Y-89344856D01*
X139921653Y-89381396D01*
X139926000Y-89425538D01*
X139926000Y-90374462D01*
X139921653Y-90418604D01*
X139910568Y-90455144D01*
X139892567Y-90488821D01*
X139868341Y-90518341D01*
X139838821Y-90542567D01*
X139805144Y-90560568D01*
X139768604Y-90571653D01*
X139724462Y-90576000D01*
X138275538Y-90576000D01*
X138231396Y-90571653D01*
X138194856Y-90560568D01*
X138161179Y-90542567D01*
X138131659Y-90518341D01*
X138107433Y-90488821D01*
X138089432Y-90455144D01*
X138078347Y-90418604D01*
X138074000Y-90374462D01*
X138074000Y-89425538D01*
X138078347Y-89381396D01*
X138089432Y-89344856D01*
X138107433Y-89311179D01*
X138131659Y-89281659D01*
X138161179Y-89257433D01*
X138194856Y-89239432D01*
X138231396Y-89228347D01*
X138275538Y-89224000D01*
X139724462Y-89224000D01*
X139768604Y-89228347D01*
G37*
G36*
X136768604Y-89228347D02*
G01*
X136805144Y-89239432D01*
X136838821Y-89257433D01*
X136868341Y-89281659D01*
X136892567Y-89311179D01*
X136910568Y-89344856D01*
X136921653Y-89381396D01*
X136926000Y-89425538D01*
X136926000Y-90374462D01*
X136921653Y-90418604D01*
X136910568Y-90455144D01*
X136892567Y-90488821D01*
X136868341Y-90518341D01*
X136838821Y-90542567D01*
X136805144Y-90560568D01*
X136768604Y-90571653D01*
X136724462Y-90576000D01*
X135275538Y-90576000D01*
X135231396Y-90571653D01*
X135194856Y-90560568D01*
X135161179Y-90542567D01*
X135131659Y-90518341D01*
X135107433Y-90488821D01*
X135089432Y-90455144D01*
X135078347Y-90418604D01*
X135074000Y-90374462D01*
X135074000Y-89425538D01*
X135078347Y-89381396D01*
X135089432Y-89344856D01*
X135107433Y-89311179D01*
X135131659Y-89281659D01*
X135161179Y-89257433D01*
X135194856Y-89239432D01*
X135231396Y-89228347D01*
X135275538Y-89224000D01*
X136724462Y-89224000D01*
X136768604Y-89228347D01*
G37*
G36*
X133768604Y-89228347D02*
G01*
X133805144Y-89239432D01*
X133838821Y-89257433D01*
X133868341Y-89281659D01*
X133892567Y-89311179D01*
X133910568Y-89344856D01*
X133921653Y-89381396D01*
X133926000Y-89425538D01*
X133926000Y-90374462D01*
X133921653Y-90418604D01*
X133910568Y-90455144D01*
X133892567Y-90488821D01*
X133868341Y-90518341D01*
X133838821Y-90542567D01*
X133805144Y-90560568D01*
X133768604Y-90571653D01*
X133724462Y-90576000D01*
X132275538Y-90576000D01*
X132231396Y-90571653D01*
X132194856Y-90560568D01*
X132161179Y-90542567D01*
X132131659Y-90518341D01*
X132107433Y-90488821D01*
X132089432Y-90455144D01*
X132078347Y-90418604D01*
X132074000Y-90374462D01*
X132074000Y-89425538D01*
X132078347Y-89381396D01*
X132089432Y-89344856D01*
X132107433Y-89311179D01*
X132131659Y-89281659D01*
X132161179Y-89257433D01*
X132194856Y-89239432D01*
X132231396Y-89228347D01*
X132275538Y-89224000D01*
X133724462Y-89224000D01*
X133768604Y-89228347D01*
G37*
G36*
X130768604Y-89228347D02*
G01*
X130805144Y-89239432D01*
X130838821Y-89257433D01*
X130868341Y-89281659D01*
X130892567Y-89311179D01*
X130910568Y-89344856D01*
X130921653Y-89381396D01*
X130926000Y-89425538D01*
X130926000Y-90374462D01*
X130921653Y-90418604D01*
X130910568Y-90455144D01*
X130892567Y-90488821D01*
X130868341Y-90518341D01*
X130838821Y-90542567D01*
X130805144Y-90560568D01*
X130768604Y-90571653D01*
X130724462Y-90576000D01*
X129275538Y-90576000D01*
X129231396Y-90571653D01*
X129194856Y-90560568D01*
X129161179Y-90542567D01*
X129131659Y-90518341D01*
X129107433Y-90488821D01*
X129089432Y-90455144D01*
X129078347Y-90418604D01*
X129074000Y-90374462D01*
X129074000Y-89425538D01*
X129078347Y-89381396D01*
X129089432Y-89344856D01*
X129107433Y-89311179D01*
X129131659Y-89281659D01*
X129161179Y-89257433D01*
X129194856Y-89239432D01*
X129231396Y-89228347D01*
X129275538Y-89224000D01*
X130724462Y-89224000D01*
X130768604Y-89228347D01*
G37*
G36*
X127768604Y-89228347D02*
G01*
X127805144Y-89239432D01*
X127838821Y-89257433D01*
X127868341Y-89281659D01*
X127892567Y-89311179D01*
X127910568Y-89344856D01*
X127921653Y-89381396D01*
X127926000Y-89425538D01*
X127926000Y-90374462D01*
X127921653Y-90418604D01*
X127910568Y-90455144D01*
X127892567Y-90488821D01*
X127868341Y-90518341D01*
X127838821Y-90542567D01*
X127805144Y-90560568D01*
X127768604Y-90571653D01*
X127724462Y-90576000D01*
X126275538Y-90576000D01*
X126231396Y-90571653D01*
X126194856Y-90560568D01*
X126161179Y-90542567D01*
X126131659Y-90518341D01*
X126107433Y-90488821D01*
X126089432Y-90455144D01*
X126078347Y-90418604D01*
X126074000Y-90374462D01*
X126074000Y-89425538D01*
X126078347Y-89381396D01*
X126089432Y-89344856D01*
X126107433Y-89311179D01*
X126131659Y-89281659D01*
X126161179Y-89257433D01*
X126194856Y-89239432D01*
X126231396Y-89228347D01*
X126275538Y-89224000D01*
X127724462Y-89224000D01*
X127768604Y-89228347D01*
G37*
G36*
X124768604Y-89228347D02*
G01*
X124805144Y-89239432D01*
X124838821Y-89257433D01*
X124868341Y-89281659D01*
X124892567Y-89311179D01*
X124910568Y-89344856D01*
X124921653Y-89381396D01*
X124926000Y-89425538D01*
X124926000Y-90374462D01*
X124921653Y-90418604D01*
X124910568Y-90455144D01*
X124892567Y-90488821D01*
X124868341Y-90518341D01*
X124838821Y-90542567D01*
X124805144Y-90560568D01*
X124768604Y-90571653D01*
X124724462Y-90576000D01*
X123275538Y-90576000D01*
X123231396Y-90571653D01*
X123194856Y-90560568D01*
X123161179Y-90542567D01*
X123131659Y-90518341D01*
X123107433Y-90488821D01*
X123089432Y-90455144D01*
X123078347Y-90418604D01*
X123074000Y-90374462D01*
X123074000Y-89425538D01*
X123078347Y-89381396D01*
X123089432Y-89344856D01*
X123107433Y-89311179D01*
X123131659Y-89281659D01*
X123161179Y-89257433D01*
X123194856Y-89239432D01*
X123231396Y-89228347D01*
X123275538Y-89224000D01*
X124724462Y-89224000D01*
X124768604Y-89228347D01*
G37*
G36*
X121768604Y-89228347D02*
G01*
X121805144Y-89239432D01*
X121838821Y-89257433D01*
X121868341Y-89281659D01*
X121892567Y-89311179D01*
X121910568Y-89344856D01*
X121921653Y-89381396D01*
X121926000Y-89425538D01*
X121926000Y-90374462D01*
X121921653Y-90418604D01*
X121910568Y-90455144D01*
X121892567Y-90488821D01*
X121868341Y-90518341D01*
X121838821Y-90542567D01*
X121805144Y-90560568D01*
X121768604Y-90571653D01*
X121724462Y-90576000D01*
X120275538Y-90576000D01*
X120231396Y-90571653D01*
X120194856Y-90560568D01*
X120161179Y-90542567D01*
X120131659Y-90518341D01*
X120107433Y-90488821D01*
X120089432Y-90455144D01*
X120078347Y-90418604D01*
X120074000Y-90374462D01*
X120074000Y-89425538D01*
X120078347Y-89381396D01*
X120089432Y-89344856D01*
X120107433Y-89311179D01*
X120131659Y-89281659D01*
X120161179Y-89257433D01*
X120194856Y-89239432D01*
X120231396Y-89228347D01*
X120275538Y-89224000D01*
X121724462Y-89224000D01*
X121768604Y-89228347D01*
G37*
G36*
X117306564Y-87489389D02*
G01*
X117497833Y-87568615D01*
X117497835Y-87568616D01*
X117572647Y-87618604D01*
X117669973Y-87683635D01*
X117816365Y-87830027D01*
X117931385Y-88002167D01*
X118010611Y-88193436D01*
X118051000Y-88396484D01*
X118051000Y-88603516D01*
X118010611Y-88806564D01*
X117931385Y-88997833D01*
X117931384Y-88997835D01*
X117816365Y-89169973D01*
X117669973Y-89316365D01*
X117497835Y-89431384D01*
X117497834Y-89431385D01*
X117497833Y-89431385D01*
X117306564Y-89510611D01*
X117103516Y-89551000D01*
X116896484Y-89551000D01*
X116693436Y-89510611D01*
X116502167Y-89431385D01*
X116502166Y-89431385D01*
X116502165Y-89431384D01*
X116330027Y-89316365D01*
X116183635Y-89169973D01*
X116068616Y-88997835D01*
X116068615Y-88997833D01*
X115989389Y-88806564D01*
X115949000Y-88603516D01*
X115949000Y-88396484D01*
X115989389Y-88193436D01*
X116068615Y-88002167D01*
X116183635Y-87830027D01*
X116330027Y-87683635D01*
X116427353Y-87618604D01*
X116502165Y-87568616D01*
X116502167Y-87568615D01*
X116693436Y-87489389D01*
X116896484Y-87449000D01*
X117103516Y-87449000D01*
X117306564Y-87489389D01*
G37*
G36*
X152306564Y-87489389D02*
G01*
X152497833Y-87568615D01*
X152497835Y-87568616D01*
X152572647Y-87618604D01*
X152669973Y-87683635D01*
X152816365Y-87830027D01*
X152931385Y-88002167D01*
X153010611Y-88193436D01*
X153051000Y-88396484D01*
X153051000Y-88603516D01*
X153010611Y-88806564D01*
X152931385Y-88997833D01*
X152931384Y-88997835D01*
X152816365Y-89169973D01*
X152669973Y-89316365D01*
X152497835Y-89431384D01*
X152497834Y-89431385D01*
X152497833Y-89431385D01*
X152306564Y-89510611D01*
X152103516Y-89551000D01*
X151896484Y-89551000D01*
X151693436Y-89510611D01*
X151502167Y-89431385D01*
X151502166Y-89431385D01*
X151502165Y-89431384D01*
X151330027Y-89316365D01*
X151183635Y-89169973D01*
X151068616Y-88997835D01*
X151068615Y-88997833D01*
X150989389Y-88806564D01*
X150949000Y-88603516D01*
X150949000Y-88396484D01*
X150989389Y-88193436D01*
X151068615Y-88002167D01*
X151183635Y-87830027D01*
X151330027Y-87683635D01*
X151427353Y-87618604D01*
X151502165Y-87568616D01*
X151502167Y-87568615D01*
X151693436Y-87489389D01*
X151896484Y-87449000D01*
X152103516Y-87449000D01*
X152306564Y-87489389D01*
G37*
G36*
X127768604Y-86428347D02*
G01*
X127805144Y-86439432D01*
X127838821Y-86457433D01*
X127868341Y-86481659D01*
X127892567Y-86511179D01*
X127910568Y-86544856D01*
X127921653Y-86581396D01*
X127926000Y-86625538D01*
X127926000Y-87574462D01*
X127921653Y-87618604D01*
X127910568Y-87655144D01*
X127892567Y-87688821D01*
X127868341Y-87718341D01*
X127838821Y-87742567D01*
X127805144Y-87760568D01*
X127768604Y-87771653D01*
X127724462Y-87776000D01*
X126275538Y-87776000D01*
X126231396Y-87771653D01*
X126194856Y-87760568D01*
X126161179Y-87742567D01*
X126131659Y-87718341D01*
X126107433Y-87688821D01*
X126089432Y-87655144D01*
X126078347Y-87618604D01*
X126074000Y-87574462D01*
X126074000Y-86625538D01*
X126078347Y-86581396D01*
X126089432Y-86544856D01*
X126107433Y-86511179D01*
X126131659Y-86481659D01*
X126161179Y-86457433D01*
X126194856Y-86439432D01*
X126231396Y-86428347D01*
X126275538Y-86424000D01*
X127724462Y-86424000D01*
X127768604Y-86428347D01*
G37*
G36*
X145768604Y-86428347D02*
G01*
X145805144Y-86439432D01*
X145838821Y-86457433D01*
X145868341Y-86481659D01*
X145892567Y-86511179D01*
X145910568Y-86544856D01*
X145921653Y-86581396D01*
X145926000Y-86625538D01*
X145926000Y-87574462D01*
X145921653Y-87618604D01*
X145910568Y-87655144D01*
X145892567Y-87688821D01*
X145868341Y-87718341D01*
X145838821Y-87742567D01*
X145805144Y-87760568D01*
X145768604Y-87771653D01*
X145724462Y-87776000D01*
X144275538Y-87776000D01*
X144231396Y-87771653D01*
X144194856Y-87760568D01*
X144161179Y-87742567D01*
X144131659Y-87718341D01*
X144107433Y-87688821D01*
X144089432Y-87655144D01*
X144078347Y-87618604D01*
X144074000Y-87574462D01*
X144074000Y-86625538D01*
X144078347Y-86581396D01*
X144089432Y-86544856D01*
X144107433Y-86511179D01*
X144131659Y-86481659D01*
X144161179Y-86457433D01*
X144194856Y-86439432D01*
X144231396Y-86428347D01*
X144275538Y-86424000D01*
X145724462Y-86424000D01*
X145768604Y-86428347D01*
G37*
G36*
X142768604Y-86428347D02*
G01*
X142805144Y-86439432D01*
X142838821Y-86457433D01*
X142868341Y-86481659D01*
X142892567Y-86511179D01*
X142910568Y-86544856D01*
X142921653Y-86581396D01*
X142926000Y-86625538D01*
X142926000Y-87574462D01*
X142921653Y-87618604D01*
X142910568Y-87655144D01*
X142892567Y-87688821D01*
X142868341Y-87718341D01*
X142838821Y-87742567D01*
X142805144Y-87760568D01*
X142768604Y-87771653D01*
X142724462Y-87776000D01*
X141275538Y-87776000D01*
X141231396Y-87771653D01*
X141194856Y-87760568D01*
X141161179Y-87742567D01*
X141131659Y-87718341D01*
X141107433Y-87688821D01*
X141089432Y-87655144D01*
X141078347Y-87618604D01*
X141074000Y-87574462D01*
X141074000Y-86625538D01*
X141078347Y-86581396D01*
X141089432Y-86544856D01*
X141107433Y-86511179D01*
X141131659Y-86481659D01*
X141161179Y-86457433D01*
X141194856Y-86439432D01*
X141231396Y-86428347D01*
X141275538Y-86424000D01*
X142724462Y-86424000D01*
X142768604Y-86428347D01*
G37*
G36*
X121768604Y-86428347D02*
G01*
X121805144Y-86439432D01*
X121838821Y-86457433D01*
X121868341Y-86481659D01*
X121892567Y-86511179D01*
X121910568Y-86544856D01*
X121921653Y-86581396D01*
X121926000Y-86625538D01*
X121926000Y-87574462D01*
X121921653Y-87618604D01*
X121910568Y-87655144D01*
X121892567Y-87688821D01*
X121868341Y-87718341D01*
X121838821Y-87742567D01*
X121805144Y-87760568D01*
X121768604Y-87771653D01*
X121724462Y-87776000D01*
X120275538Y-87776000D01*
X120231396Y-87771653D01*
X120194856Y-87760568D01*
X120161179Y-87742567D01*
X120131659Y-87718341D01*
X120107433Y-87688821D01*
X120089432Y-87655144D01*
X120078347Y-87618604D01*
X120074000Y-87574462D01*
X120074000Y-86625538D01*
X120078347Y-86581396D01*
X120089432Y-86544856D01*
X120107433Y-86511179D01*
X120131659Y-86481659D01*
X120161179Y-86457433D01*
X120194856Y-86439432D01*
X120231396Y-86428347D01*
X120275538Y-86424000D01*
X121724462Y-86424000D01*
X121768604Y-86428347D01*
G37*
G36*
X139768604Y-86428347D02*
G01*
X139805144Y-86439432D01*
X139838821Y-86457433D01*
X139868341Y-86481659D01*
X139892567Y-86511179D01*
X139910568Y-86544856D01*
X139921653Y-86581396D01*
X139926000Y-86625538D01*
X139926000Y-87574462D01*
X139921653Y-87618604D01*
X139910568Y-87655144D01*
X139892567Y-87688821D01*
X139868341Y-87718341D01*
X139838821Y-87742567D01*
X139805144Y-87760568D01*
X139768604Y-87771653D01*
X139724462Y-87776000D01*
X138275538Y-87776000D01*
X138231396Y-87771653D01*
X138194856Y-87760568D01*
X138161179Y-87742567D01*
X138131659Y-87718341D01*
X138107433Y-87688821D01*
X138089432Y-87655144D01*
X138078347Y-87618604D01*
X138074000Y-87574462D01*
X138074000Y-86625538D01*
X138078347Y-86581396D01*
X138089432Y-86544856D01*
X138107433Y-86511179D01*
X138131659Y-86481659D01*
X138161179Y-86457433D01*
X138194856Y-86439432D01*
X138231396Y-86428347D01*
X138275538Y-86424000D01*
X139724462Y-86424000D01*
X139768604Y-86428347D01*
G37*
G36*
X136768604Y-86428347D02*
G01*
X136805144Y-86439432D01*
X136838821Y-86457433D01*
X136868341Y-86481659D01*
X136892567Y-86511179D01*
X136910568Y-86544856D01*
X136921653Y-86581396D01*
X136926000Y-86625538D01*
X136926000Y-87574462D01*
X136921653Y-87618604D01*
X136910568Y-87655144D01*
X136892567Y-87688821D01*
X136868341Y-87718341D01*
X136838821Y-87742567D01*
X136805144Y-87760568D01*
X136768604Y-87771653D01*
X136724462Y-87776000D01*
X135275538Y-87776000D01*
X135231396Y-87771653D01*
X135194856Y-87760568D01*
X135161179Y-87742567D01*
X135131659Y-87718341D01*
X135107433Y-87688821D01*
X135089432Y-87655144D01*
X135078347Y-87618604D01*
X135074000Y-87574462D01*
X135074000Y-86625538D01*
X135078347Y-86581396D01*
X135089432Y-86544856D01*
X135107433Y-86511179D01*
X135131659Y-86481659D01*
X135161179Y-86457433D01*
X135194856Y-86439432D01*
X135231396Y-86428347D01*
X135275538Y-86424000D01*
X136724462Y-86424000D01*
X136768604Y-86428347D01*
G37*
G36*
X148768604Y-86428347D02*
G01*
X148805144Y-86439432D01*
X148838821Y-86457433D01*
X148868341Y-86481659D01*
X148892567Y-86511179D01*
X148910568Y-86544856D01*
X148921653Y-86581396D01*
X148926000Y-86625538D01*
X148926000Y-87574462D01*
X148921653Y-87618604D01*
X148910568Y-87655144D01*
X148892567Y-87688821D01*
X148868341Y-87718341D01*
X148838821Y-87742567D01*
X148805144Y-87760568D01*
X148768604Y-87771653D01*
X148724462Y-87776000D01*
X147275538Y-87776000D01*
X147231396Y-87771653D01*
X147194856Y-87760568D01*
X147161179Y-87742567D01*
X147131659Y-87718341D01*
X147107433Y-87688821D01*
X147089432Y-87655144D01*
X147078347Y-87618604D01*
X147074000Y-87574462D01*
X147074000Y-86625538D01*
X147078347Y-86581396D01*
X147089432Y-86544856D01*
X147107433Y-86511179D01*
X147131659Y-86481659D01*
X147161179Y-86457433D01*
X147194856Y-86439432D01*
X147231396Y-86428347D01*
X147275538Y-86424000D01*
X148724462Y-86424000D01*
X148768604Y-86428347D01*
G37*
G36*
X133768604Y-86428347D02*
G01*
X133805144Y-86439432D01*
X133838821Y-86457433D01*
X133868341Y-86481659D01*
X133892567Y-86511179D01*
X133910568Y-86544856D01*
X133921653Y-86581396D01*
X133926000Y-86625538D01*
X133926000Y-87574462D01*
X133921653Y-87618604D01*
X133910568Y-87655144D01*
X133892567Y-87688821D01*
X133868341Y-87718341D01*
X133838821Y-87742567D01*
X133805144Y-87760568D01*
X133768604Y-87771653D01*
X133724462Y-87776000D01*
X132275538Y-87776000D01*
X132231396Y-87771653D01*
X132194856Y-87760568D01*
X132161179Y-87742567D01*
X132131659Y-87718341D01*
X132107433Y-87688821D01*
X132089432Y-87655144D01*
X132078347Y-87618604D01*
X132074000Y-87574462D01*
X132074000Y-86625538D01*
X132078347Y-86581396D01*
X132089432Y-86544856D01*
X132107433Y-86511179D01*
X132131659Y-86481659D01*
X132161179Y-86457433D01*
X132194856Y-86439432D01*
X132231396Y-86428347D01*
X132275538Y-86424000D01*
X133724462Y-86424000D01*
X133768604Y-86428347D01*
G37*
G36*
X124768604Y-86428347D02*
G01*
X124805144Y-86439432D01*
X124838821Y-86457433D01*
X124868341Y-86481659D01*
X124892567Y-86511179D01*
X124910568Y-86544856D01*
X124921653Y-86581396D01*
X124926000Y-86625538D01*
X124926000Y-87574462D01*
X124921653Y-87618604D01*
X124910568Y-87655144D01*
X124892567Y-87688821D01*
X124868341Y-87718341D01*
X124838821Y-87742567D01*
X124805144Y-87760568D01*
X124768604Y-87771653D01*
X124724462Y-87776000D01*
X123275538Y-87776000D01*
X123231396Y-87771653D01*
X123194856Y-87760568D01*
X123161179Y-87742567D01*
X123131659Y-87718341D01*
X123107433Y-87688821D01*
X123089432Y-87655144D01*
X123078347Y-87618604D01*
X123074000Y-87574462D01*
X123074000Y-86625538D01*
X123078347Y-86581396D01*
X123089432Y-86544856D01*
X123107433Y-86511179D01*
X123131659Y-86481659D01*
X123161179Y-86457433D01*
X123194856Y-86439432D01*
X123231396Y-86428347D01*
X123275538Y-86424000D01*
X124724462Y-86424000D01*
X124768604Y-86428347D01*
G37*
G36*
X130768604Y-86428347D02*
G01*
X130805144Y-86439432D01*
X130838821Y-86457433D01*
X130868341Y-86481659D01*
X130892567Y-86511179D01*
X130910568Y-86544856D01*
X130921653Y-86581396D01*
X130926000Y-86625538D01*
X130926000Y-87574462D01*
X130921653Y-87618604D01*
X130910568Y-87655144D01*
X130892567Y-87688821D01*
X130868341Y-87718341D01*
X130838821Y-87742567D01*
X130805144Y-87760568D01*
X130768604Y-87771653D01*
X130724462Y-87776000D01*
X129275538Y-87776000D01*
X129231396Y-87771653D01*
X129194856Y-87760568D01*
X129161179Y-87742567D01*
X129131659Y-87718341D01*
X129107433Y-87688821D01*
X129089432Y-87655144D01*
X129078347Y-87618604D01*
X129074000Y-87574462D01*
X129074000Y-86625538D01*
X129078347Y-86581396D01*
X129089432Y-86544856D01*
X129107433Y-86511179D01*
X129131659Y-86481659D01*
X129161179Y-86457433D01*
X129194856Y-86439432D01*
X129231396Y-86428347D01*
X129275538Y-86424000D01*
X130724462Y-86424000D01*
X130768604Y-86428347D01*
G37*
G36*
X154875256Y-80891298D02*
G01*
X154981579Y-80912447D01*
X155282042Y-81036903D01*
X155552451Y-81217585D01*
X155782415Y-81447549D01*
X155963097Y-81717958D01*
X156075528Y-81989389D01*
X156087553Y-82018422D01*
X156151000Y-82337389D01*
X156151000Y-82662611D01*
X156144868Y-82693436D01*
X156087553Y-82981579D01*
X155963097Y-83282042D01*
X155782415Y-83552451D01*
X155552451Y-83782415D01*
X155282042Y-83963097D01*
X154981579Y-84087553D01*
X154875256Y-84108702D01*
X154662611Y-84151000D01*
X154337389Y-84151000D01*
X154124744Y-84108702D01*
X154018421Y-84087553D01*
X153717958Y-83963097D01*
X153447549Y-83782415D01*
X153217585Y-83552451D01*
X153036903Y-83282042D01*
X152912447Y-82981579D01*
X152855132Y-82693436D01*
X152849000Y-82662611D01*
X152849000Y-82337389D01*
X152912447Y-82018422D01*
X152924473Y-81989389D01*
X153036903Y-81717958D01*
X153217585Y-81447549D01*
X153447549Y-81217585D01*
X153717958Y-81036903D01*
X154018421Y-80912447D01*
X154124744Y-80891298D01*
X154337389Y-80849000D01*
X154662611Y-80849000D01*
X154875256Y-80891298D01*
G37*
G36*
X137306564Y-81989389D02*
G01*
X137497833Y-82068615D01*
X137497835Y-82068616D01*
X137669973Y-82183635D01*
X137816365Y-82330027D01*
X137931385Y-82502167D01*
X138010611Y-82693436D01*
X138051000Y-82896484D01*
X138051000Y-83103516D01*
X138010611Y-83306564D01*
X137931385Y-83497833D01*
X137931384Y-83497835D01*
X137816365Y-83669973D01*
X137669973Y-83816365D01*
X137497835Y-83931384D01*
X137497834Y-83931385D01*
X137497833Y-83931385D01*
X137306564Y-84010611D01*
X137103516Y-84051000D01*
X136896484Y-84051000D01*
X136693436Y-84010611D01*
X136502167Y-83931385D01*
X136502166Y-83931385D01*
X136502165Y-83931384D01*
X136330027Y-83816365D01*
X136183635Y-83669973D01*
X136068616Y-83497835D01*
X136068615Y-83497833D01*
X135989389Y-83306564D01*
X135949000Y-83103516D01*
X135949000Y-82896484D01*
X135989389Y-82693436D01*
X136068615Y-82502167D01*
X136183635Y-82330027D01*
X136330027Y-82183635D01*
X136502165Y-82068616D01*
X136502167Y-82068615D01*
X136693436Y-81989389D01*
X136896484Y-81949000D01*
X137103516Y-81949000D01*
X137306564Y-81989389D01*
G37*
G36*
X132306564Y-81989389D02*
G01*
X132497833Y-82068615D01*
X132497835Y-82068616D01*
X132669973Y-82183635D01*
X132816365Y-82330027D01*
X132931385Y-82502167D01*
X133010611Y-82693436D01*
X133051000Y-82896484D01*
X133051000Y-83103516D01*
X133010611Y-83306564D01*
X132931385Y-83497833D01*
X132931384Y-83497835D01*
X132816365Y-83669973D01*
X132669973Y-83816365D01*
X132497835Y-83931384D01*
X132497834Y-83931385D01*
X132497833Y-83931385D01*
X132306564Y-84010611D01*
X132103516Y-84051000D01*
X131896484Y-84051000D01*
X131693436Y-84010611D01*
X131502167Y-83931385D01*
X131502166Y-83931385D01*
X131502165Y-83931384D01*
X131330027Y-83816365D01*
X131183635Y-83669973D01*
X131068616Y-83497835D01*
X131068615Y-83497833D01*
X130989389Y-83306564D01*
X130949000Y-83103516D01*
X130949000Y-82896484D01*
X130989389Y-82693436D01*
X131068615Y-82502167D01*
X131183635Y-82330027D01*
X131330027Y-82183635D01*
X131502165Y-82068616D01*
X131502167Y-82068615D01*
X131693436Y-81989389D01*
X131896484Y-81949000D01*
X132103516Y-81949000D01*
X132306564Y-81989389D01*
G37*
M02*
